<svg width="30" height="265" viewBox="0 0 30 265" fill="none" xmlns="http://www.w3.org/2000/svg">
<path d="M13.4951 145.714C13.7017 145.295 14.2985 145.295 14.5051 145.714L17.1791 151.132C17.2611 151.298 17.4196 151.413 17.6031 151.44L23.5823 152.309C24.0442 152.376 24.2286 152.944 23.8944 153.269L19.5678 157.487C19.4351 157.616 19.3745 157.803 19.4058 157.985L20.4272 163.94C20.5061 164.4 20.0233 164.751 19.6101 164.534L14.2621 161.722C14.0981 161.636 13.9021 161.636 13.738 161.722L8.39002 164.534C7.97689 164.751 7.49404 164.4 7.57294 163.94L8.59432 157.985C8.62565 157.803 8.56509 157.616 8.43236 157.487L4.10573 153.269C3.7715 152.944 3.95594 152.376 4.41783 152.309L10.3971 151.44C10.5805 151.413 10.7391 151.298 10.8211 151.132L13.4951 145.714Z" stroke="#44DD8A" stroke-width="2" stroke-linejoin="round"/>
<path d="M10.5725 8.85088L21.225 8.85073M21.225 8.85073L21.225 19.3517M21.225 8.85073L8.85058 21.2251" stroke="#44DD8A" stroke-width="2" stroke-linecap="round" stroke-linejoin="round"/>
<path d="M15.6707 69.0539L16.5985 68.014C17.737 66.7381 19.7795 66.9039 20.6972 68.3468C21.5521 69.691 23.4093 69.9458 24.5946 68.8816L26.2764 67.3715M3.72363 69.3377L9.18111 68.2381C9.47083 68.1797 9.73685 68.037 9.94578 67.828L22.1629 55.6042C22.7486 55.0181 22.7482 54.0682 22.162 53.4826L19.574 50.8975C18.988 50.3121 18.0385 50.3125 17.453 50.8984L5.23459 63.1234C5.02607 63.3321 4.88369 63.5975 4.82526 63.8867L3.72363 69.3377Z" stroke="#44DD8A" stroke-width="2" stroke-linecap="round" stroke-linejoin="round"/>
<path d="M5 109.005L5 113.616C5 114.314 5.26339 114.984 5.73223 115.478C6.20107 115.972 6.83696 116.25 7.5 116.25H22.5C23.163 116.25 23.7989 115.972 24.2678 115.478C24.7366 114.984 25 114.314 25 113.616V109.005M15.0014 93.75V108.678M15.0014 108.678L20.7157 102.974M15.0014 108.678L9.28711 102.974" stroke="#44DD8A" stroke-width="2" stroke-linecap="round" stroke-linejoin="round"/>
<path d="M24.3808 202C24.3808 208.213 19.3427 213.25 13.1279 213.25C6.9131 213.25 1.875 208.213 1.875 202C1.875 195.787 6.9131 190.75 13.1279 190.75C17.2931 190.75 20.9297 193.012 22.8754 196.375M21.2939 203.235L24.1071 200.422L26.9203 203.235M17.3438 205.068L13.125 203.661V197.781" stroke="#44DD8A" stroke-width="2" stroke-linecap="round" stroke-linejoin="round"/>
<path d="M9.375 247.293V247.188M15 247.293V247.188M20.625 247.293V247.188M18.0571 255.38L15 261.25L12.1875 255.38H6.5625C5.0092 255.38 3.75 254.121 3.75 252.568V241.563C3.75 240.009 5.0092 238.75 6.5625 238.75H23.4375C24.9908 238.75 26.25 240.009 26.25 241.562V252.568C26.25 254.121 24.9908 255.38 23.4375 255.38H18.0571Z" stroke="#44DD8A" stroke-width="2" stroke-linecap="round" stroke-linejoin="round"/>
</svg>
