<svg width="145" height="56" viewBox="0 0 145 56" fill="none" xmlns="http://www.w3.org/2000/svg">
<g filter="url(#filter0_d_2398_2417)">
<rect x="7.19995" y="8.20001" width="120" height="31.5839" rx="15.7919" fill="#152237"/>
</g>
<path d="M21.14 31.2V18.4L22.54 19.8H18.34V17.2H24.38V31.2H21.14ZM31.272 31.44C30.2986 31.44 29.332 31.3133 28.372 31.06C27.4253 30.7933 26.612 30.42 25.932 29.94L27.212 27.46C27.7453 27.8467 28.3586 28.1533 29.052 28.38C29.7586 28.6067 30.472 28.72 31.192 28.72C32.0053 28.72 32.6453 28.56 33.112 28.24C33.5786 27.92 33.812 27.4733 33.812 26.9C33.812 26.54 33.7186 26.22 33.532 25.94C33.3453 25.66 33.012 25.4467 32.532 25.3C32.0653 25.1533 31.4053 25.08 30.552 25.08H26.972L27.692 17.2H36.232V19.8H28.852L30.532 18.32L30.032 23.94L28.352 22.46H31.312C32.6986 22.46 33.812 22.6533 34.652 23.04C35.5053 23.4133 36.1253 23.9267 36.512 24.58C36.8986 25.2333 37.092 25.9733 37.092 26.8C37.092 27.6267 36.8853 28.3933 36.472 29.1C36.0586 29.7933 35.4186 30.36 34.552 30.8C33.6986 31.2267 32.6053 31.44 31.272 31.44ZM38.2265 34.28L39.5465 29.48L39.9865 31.28C39.4132 31.28 38.9398 31.1133 38.5665 30.78C38.2065 30.4467 38.0265 29.9867 38.0265 29.4C38.0265 28.8133 38.2132 28.3467 38.5865 28C38.9598 27.6533 39.4198 27.48 39.9665 27.48C40.5265 27.48 40.9865 27.66 41.3465 28.02C41.7065 28.3667 41.8865 28.8267 41.8865 29.4C41.8865 29.5733 41.8732 29.7467 41.8465 29.92C41.8198 30.08 41.7665 30.28 41.6865 30.52C41.6198 30.7467 41.5065 31.04 41.3465 31.4L40.2065 34.28H38.2265ZM47.9609 16.96C49.2542 16.96 50.3676 17.2267 51.3009 17.76C52.2342 18.2933 52.9542 19.0733 53.4609 20.1C53.9676 21.1133 54.2209 22.38 54.2209 23.9C54.2209 25.5133 53.9142 26.88 53.3009 28C52.7009 29.12 51.8676 29.9733 50.8009 30.56C49.7342 31.1467 48.4942 31.44 47.0809 31.44C46.3476 31.44 45.6409 31.36 44.9609 31.2C44.2809 31.04 43.6942 30.8 43.2009 30.48L44.4009 28.1C44.7876 28.3667 45.2009 28.5533 45.6409 28.66C46.0809 28.7533 46.5409 28.8 47.0209 28.8C48.2209 28.8 49.1742 28.4333 49.8809 27.7C50.6009 26.9667 50.9609 25.88 50.9609 24.44C50.9609 24.2 50.9542 23.9333 50.9409 23.64C50.9276 23.3467 50.8942 23.0533 50.8409 22.76L51.7209 23.6C51.4942 24.12 51.1742 24.56 50.7609 24.92C50.3476 25.2667 49.8676 25.5333 49.3209 25.72C48.7742 25.8933 48.1609 25.98 47.4809 25.98C46.5876 25.98 45.7742 25.8 45.0409 25.44C44.3209 25.08 43.7409 24.5733 43.3009 23.92C42.8742 23.2667 42.6609 22.5 42.6609 21.62C42.6609 20.66 42.8942 19.8333 43.3609 19.14C43.8409 18.4467 44.4809 17.9133 45.2809 17.54C46.0942 17.1533 46.9876 16.96 47.9609 16.96ZM48.1609 19.38C47.6942 19.38 47.2876 19.4667 46.9409 19.64C46.5942 19.8 46.3209 20.04 46.1209 20.36C45.9209 20.6667 45.8209 21.0333 45.8209 21.46C45.8209 22.1 46.0342 22.6133 46.4609 23C46.9009 23.3733 47.4809 23.56 48.2009 23.56C48.6676 23.56 49.0809 23.4733 49.4409 23.3C49.8142 23.1133 50.1009 22.86 50.3009 22.54C50.5009 22.22 50.6009 21.86 50.6009 21.46C50.6009 21.06 50.5009 20.7067 50.3009 20.4C50.1142 20.08 49.8409 19.8333 49.4809 19.66C49.1209 19.4733 48.6809 19.38 48.1609 19.38ZM60.3953 16.96C61.6886 16.96 62.8019 17.2267 63.7353 17.76C64.6686 18.2933 65.3886 19.0733 65.8953 20.1C66.4019 21.1133 66.6553 22.38 66.6553 23.9C66.6553 25.5133 66.3486 26.88 65.7353 28C65.1353 29.12 64.3019 29.9733 63.2353 30.56C62.1686 31.1467 60.9286 31.44 59.5153 31.44C58.7819 31.44 58.0753 31.36 57.3953 31.2C56.7153 31.04 56.1286 30.8 55.6353 30.48L56.8353 28.1C57.2219 28.3667 57.6353 28.5533 58.0753 28.66C58.5153 28.7533 58.9753 28.8 59.4553 28.8C60.6553 28.8 61.6086 28.4333 62.3153 27.7C63.0353 26.9667 63.3953 25.88 63.3953 24.44C63.3953 24.2 63.3886 23.9333 63.3753 23.64C63.3619 23.3467 63.3286 23.0533 63.2753 22.76L64.1553 23.6C63.9286 24.12 63.6086 24.56 63.1953 24.92C62.7819 25.2667 62.3019 25.5333 61.7553 25.72C61.2086 25.8933 60.5953 25.98 59.9153 25.98C59.0219 25.98 58.2086 25.8 57.4753 25.44C56.7553 25.08 56.1753 24.5733 55.7353 23.92C55.3086 23.2667 55.0953 22.5 55.0953 21.62C55.0953 20.66 55.3286 19.8333 55.7953 19.14C56.2753 18.4467 56.9153 17.9133 57.7153 17.54C58.5286 17.1533 59.4219 16.96 60.3953 16.96ZM60.5953 19.38C60.1286 19.38 59.7219 19.4667 59.3753 19.64C59.0286 19.8 58.7553 20.04 58.5553 20.36C58.3553 20.6667 58.2553 21.0333 58.2553 21.46C58.2553 22.1 58.4686 22.6133 58.8953 23C59.3353 23.3733 59.9153 23.56 60.6353 23.56C61.1019 23.56 61.5153 23.4733 61.8753 23.3C62.2486 23.1133 62.5353 22.86 62.7353 22.54C62.9353 22.22 63.0353 21.86 63.0353 21.46C63.0353 21.06 62.9353 20.7067 62.7353 20.4C62.5486 20.08 62.2753 19.8333 61.9153 19.66C61.5553 19.4733 61.1153 19.38 60.5953 19.38ZM73.0937 26.42V24.74H83.8737V26.42H73.0937ZM73.0937 23.66V21.98H83.8737V23.66H73.0937ZM82.6137 31.44C81.5204 31.44 80.507 31.2667 79.5737 30.92C78.6537 30.56 77.8537 30.0533 77.1737 29.4C76.4937 28.7467 75.967 27.98 75.5937 27.1C75.2204 26.22 75.0337 25.2533 75.0337 24.2C75.0337 23.1467 75.2204 22.18 75.5937 21.3C75.967 20.42 76.4937 19.6533 77.1737 19C77.8537 18.3467 78.6537 17.8467 79.5737 17.5C80.507 17.14 81.5204 16.96 82.6137 16.96C83.827 16.96 84.927 17.1733 85.9137 17.6C86.9004 18.0133 87.7204 18.6267 88.3737 19.44L86.3137 21.36C85.8337 20.8133 85.3004 20.4067 84.7137 20.14C84.127 19.86 83.4804 19.72 82.7737 19.72C82.1204 19.72 81.5204 19.8267 80.9737 20.04C80.427 20.2533 79.9537 20.56 79.5537 20.96C79.1537 21.36 78.8404 21.8333 78.6137 22.38C78.4004 22.9267 78.2937 23.5333 78.2937 24.2C78.2937 24.8667 78.4004 25.4733 78.6137 26.02C78.8404 26.5667 79.1537 27.04 79.5537 27.44C79.9537 27.84 80.427 28.1467 80.9737 28.36C81.5204 28.5733 82.1204 28.68 82.7737 28.68C83.4804 28.68 84.127 28.5467 84.7137 28.28C85.3004 28 85.8337 27.58 86.3137 27.02L88.3737 28.94C87.7204 29.7533 86.9004 30.3733 85.9137 30.8C84.927 31.2267 83.827 31.44 82.6137 31.44Z" fill="white"/>
<path d="M99.59 27.26C98.97 27.26 98.4466 27.1233 98.02 26.85C97.5933 26.57 97.27 26.17 97.05 25.65C96.83 25.1233 96.72 24.4933 96.72 23.76C96.72 22.9667 96.8533 22.3033 97.12 21.77C97.3933 21.23 97.77 20.8233 98.25 20.55C98.73 20.2767 99.2866 20.14 99.92 20.14C100.233 20.14 100.533 20.17 100.82 20.23C101.107 20.29 101.36 20.3867 101.58 20.52L101.29 21.1C101.11 20.98 100.903 20.8967 100.67 20.85C100.437 20.7967 100.19 20.77 99.93 20.77C99.1766 20.77 98.5733 21.01 98.12 21.49C97.6733 21.97 97.45 22.6867 97.45 23.64C97.45 23.7867 97.4566 23.97 97.47 24.19C97.49 24.4033 97.53 24.6167 97.59 24.83L97.34 24.64C97.4133 24.2933 97.5566 24 97.77 23.76C97.9833 23.5133 98.25 23.3267 98.57 23.2C98.89 23.0733 99.24 23.01 99.62 23.01C100.087 23.01 100.497 23.0967 100.85 23.27C101.203 23.4433 101.48 23.6867 101.68 24C101.88 24.3133 101.98 24.6833 101.98 25.11C101.98 25.5433 101.877 25.9233 101.67 26.25C101.463 26.57 101.177 26.82 100.81 27C100.45 27.1733 100.043 27.26 99.59 27.26ZM99.56 26.65C99.8933 26.65 100.187 26.59 100.44 26.47C100.7 26.3433 100.903 26.1667 101.05 25.94C101.197 25.7067 101.27 25.4367 101.27 25.13C101.27 24.67 101.11 24.3033 100.79 24.03C100.477 23.7567 100.05 23.62 99.51 23.62C99.15 23.62 98.8366 23.6867 98.57 23.82C98.3033 23.9533 98.0933 24.1367 97.94 24.37C97.7866 24.5967 97.71 24.8567 97.71 25.15C97.71 25.4033 97.78 25.6467 97.92 25.88C98.06 26.1067 98.2666 26.2933 98.54 26.44C98.82 26.58 99.16 26.65 99.56 26.65ZM105.454 27.26C104.914 27.26 104.434 27.12 104.014 26.84C103.594 26.5533 103.264 26.1467 103.024 25.62C102.784 25.0867 102.664 24.4467 102.664 23.7C102.664 22.9533 102.784 22.3167 103.024 21.79C103.264 21.2567 103.594 20.85 104.014 20.57C104.434 20.2833 104.914 20.14 105.454 20.14C105.994 20.14 106.474 20.2833 106.894 20.57C107.314 20.85 107.644 21.2567 107.884 21.79C108.13 22.3167 108.254 22.9533 108.254 23.7C108.254 24.4467 108.13 25.0867 107.884 25.62C107.644 26.1467 107.314 26.5533 106.894 26.84C106.474 27.12 105.994 27.26 105.454 27.26ZM105.454 26.6C105.867 26.6 106.227 26.49 106.534 26.27C106.84 26.0433 107.08 25.7167 107.254 25.29C107.427 24.8567 107.514 24.3267 107.514 23.7C107.514 23.0733 107.427 22.5467 107.254 22.12C107.08 21.6867 106.84 21.36 106.534 21.14C106.227 20.9133 105.867 20.8 105.454 20.8C105.054 20.8 104.697 20.9133 104.384 21.14C104.07 21.36 103.827 21.6867 103.654 22.12C103.48 22.5467 103.394 23.0733 103.394 23.7C103.394 24.3267 103.48 24.8567 103.654 25.29C103.827 25.7167 104.07 26.0433 104.384 26.27C104.697 26.49 105.054 26.6 105.454 26.6ZM111.382 24.61V24.17H116.742V24.61H111.382ZM111.382 23.23V22.79H116.742V23.23H111.382ZM116.092 27.26C115.572 27.26 115.089 27.1733 114.642 27C114.195 26.82 113.805 26.57 113.472 26.25C113.145 25.93 112.889 25.5533 112.702 25.12C112.522 24.6867 112.432 24.2133 112.432 23.7C112.432 23.1867 112.522 22.7133 112.702 22.28C112.889 21.8467 113.145 21.47 113.472 21.15C113.805 20.83 114.195 20.5833 114.642 20.41C115.089 20.23 115.572 20.14 116.092 20.14C116.612 20.14 117.092 20.2267 117.532 20.4C117.979 20.5667 118.359 20.82 118.672 21.16L118.192 21.63C117.912 21.3367 117.595 21.1267 117.242 21C116.895 20.8667 116.525 20.8 116.132 20.8C115.705 20.8 115.312 20.8733 114.952 21.02C114.592 21.16 114.279 21.3633 114.012 21.63C113.745 21.89 113.539 22.1967 113.392 22.55C113.245 22.8967 113.172 23.28 113.172 23.7C113.172 24.12 113.245 24.5067 113.392 24.86C113.539 25.2067 113.745 25.5133 114.012 25.78C114.279 26.04 114.592 26.2433 114.952 26.39C115.312 26.53 115.705 26.6 116.132 26.6C116.525 26.6 116.895 26.5333 117.242 26.4C117.595 26.2667 117.912 26.0533 118.192 25.76L118.672 26.23C118.359 26.57 117.979 26.8267 117.532 27C117.092 27.1733 116.612 27.26 116.092 27.26Z" fill="white"/>
<path d="M96.2 24.1H119.102V24.6H96.2V24.1Z" fill="white"/>
<defs>
<filter id="filter0_d_2398_2417" x="-4.86374e-05" y="1.23978e-05" width="144.4" height="55.9839" filterUnits="userSpaceOnUse" color-interpolation-filters="sRGB">
<feFlood flood-opacity="0" result="BackgroundImageFix"/>
<feColorMatrix in="SourceAlpha" type="matrix" values="0 0 0 0 0 0 0 0 0 0 0 0 0 0 0 0 0 0 127 0" result="hardAlpha"/>
<feMorphology radius="1" operator="erode" in="SourceAlpha" result="effect1_dropShadow_2398_2417"/>
<feOffset dx="5" dy="4"/>
<feGaussianBlur stdDeviation="6.6"/>
<feComposite in2="hardAlpha" operator="out"/>
<feColorMatrix type="matrix" values="0 0 0 0 0 0 0 0 0 0 0 0 0 0 0 0 0 0 0.25 0"/>
<feBlend mode="normal" in2="BackgroundImageFix" result="effect1_dropShadow_2398_2417"/>
<feBlend mode="normal" in="SourceGraphic" in2="effect1_dropShadow_2398_2417" result="shape"/>
</filter>
</defs>
</svg>
